<svg xmlns="http://www.w3.org/2000/svg" width="24" height="24" fill="none" viewBox="0 0 24 24">
  <path stroke="#fff" stroke-width="2" d="M10.575 2.946a2 2 0 0 1 2.85 0l1.043 1.06a2 2 0 0 0 1.44.596l1.487-.011a2 2 0 0 1 2.014 2.014l-.01 1.487a2 2 0 0 0 .596 1.44l1.059 1.043a2 2 0 0 1 0 2.85l-1.06 1.043a2 2 0 0 0-.596 1.44l.011 1.487a2 2 0 0 1-2.014 2.014l-1.487-.01a2 2 0 0 0-1.44.596l-1.043 1.059a2 2 0 0 1-2.85 0l-1.043-1.06a2 2 0 0 0-1.44-.596l-1.487.011a2 2 0 0 1-2.014-2.014l.01-1.487a2 2 0 0 0-.596-1.44l-1.059-1.043a2 2 0 0 1 0-2.85l1.06-1.043a2 2 0 0 0 .596-1.44L4.59 6.605a2 2 0 0 1 2.014-2.014l1.487.01a2 2 0 0 0 1.44-.596l1.043-1.059Z"/>
  <path stroke="#fff" stroke-linecap="round" stroke-linejoin="round" stroke-width="2" d="m16 10-4.375 4L9 12.118"/>
</svg>
